<svg
   width="56"
   height="57"
   version="1"
   id="svg12"
   sodipodi:docname="b8140f83219fbbae282914a401e87071.svg"
   xmlns:inkscape="http://www.inkscape.org/namespaces/inkscape"
   xmlns:sodipodi="http://sodipodi.sourceforge.net/DTD/sodipodi-0.dtd"
   xmlns="http://www.w3.org/2000/svg"
   xmlns:svg="http://www.w3.org/2000/svg">
  <defs
     id="defs16" />
  <sodipodi:namedview
     id="namedview14"
     pagecolor="#ffffff"
     bordercolor="#666666"
     borderopacity="1.0"
     inkscape:pageshadow="2"
     inkscape:pageopacity="0.0"
     inkscape:pagecheckerboard="0" />
  <path
     style="opacity:0.2"
     d="m 0,52 v 2 c 0,1.662 1.338,3 3,3 h 50 c 1.662,0 3,-1.338 3,-3 v -2 c 0,1.662 -1.338,3 -3,3 H 3 C 1.338,55 0,53.662 0,52 Z"
     id="path2" />
  <rect
     style="fill:#3f7bc2"
     width="56"
     height="56"
     x="-56"
     y="-56"
     rx="3"
     ry="3"
     transform="matrix(0,-1,-1,0,0,0)"
     id="rect4" />
  <path
     style="opacity:0.1;fill:#ffffff"
     d="M 3,0 C 1.338,0 0,1.338 0,3 V 4 C 0,2.338 1.338,1 3,1 h 50 c 1.662,0 3,1.338 3,3 V 3 C 56,1.338 54.662,0 53,0 Z"
     id="path6" />
  <path
     style="opacity:0.2"
     d="M 46.426,13.0624 23.8,35.6884 9.6562,21.5464 4,27.2044 l 14.144,14.14 5.656,5.656 5.6562,-5.6562 22.624,-22.624 -5.6562,-5.6562 z"
     id="path8" />
  <path
     style="fill:#ffffff"
     d="M 46.426,12.0624 23.8,34.6884 9.6562,20.5464 4,26.2044 l 14.144,14.14 5.656,5.656 5.6562,-5.6562 22.624,-22.624 -5.6562,-5.6562 z"
     id="path10" />
</svg>